<?xml version="1.0" encoding="UTF-8" standalone="no"?>
<!-- Created with Inkscape (http://www.inkscape.org/) -->

<svg
   width="100mm"
   height="100mm"
   viewBox="0 0 100 100"
   version="1.1"
   id="svg5"
   inkscape:version="1.1.2 (b8e25be833, 2022-02-05)"
   sodipodi:docname="AB.svg"
   inkscape:export-filename="C:\repos\sql-grapher\assets\icons\AB.png"
   inkscape:export-xdpi="96"
   inkscape:export-ydpi="96"
   xmlns:inkscape="http://www.inkscape.org/namespaces/inkscape"
   xmlns:sodipodi="http://sodipodi.sourceforge.net/DTD/sodipodi-0.dtd"
   xmlns="http://www.w3.org/2000/svg"
   xmlns:svg="http://www.w3.org/2000/svg">
  <sodipodi:namedview
     id="namedview7"
     pagecolor="#505050"
     bordercolor="#eeeeee"
     borderopacity="1"
     inkscape:pageshadow="0"
     inkscape:pageopacity="0"
     inkscape:pagecheckerboard="0"
     inkscape:document-units="mm"
     showgrid="false"
     inkscape:zoom="2.0737236"
     inkscape:cx="182.2808"
     inkscape:cy="162.99183"
     inkscape:window-width="1920"
     inkscape:window-height="1009"
     inkscape:window-x="-8"
     inkscape:window-y="-8"
     inkscape:window-maximized="1"
     inkscape:current-layer="layer1" />
  <defs
     id="defs2" />
  <g
     inkscape:label="Layer 1"
     inkscape:groupmode="layer"
     id="layer1">
    <circle
       style="fill:#ffffff;fill-opacity:1;stroke:none;stroke-width:0.344011;stroke-opacity:1"
       id="circle1519-1"
       cx="-9.0782938"
       cy="-54.06496"
       r="19.58971"
       transform="rotate(165)" />
    <path
       id="circle1519-1-5"
       style="fill:#ffffff;fill-opacity:1;stroke:none;stroke-width:0.344012;stroke-opacity:1"
       d="M 76.93838,29.8231 A 19.58971,19.58971 0 0 0 71.645287,30.489591 19.58971,19.58971 0 0 0 57.793164,54.481609 19.58971,19.58971 0 0 0 81.78577,68.333736 19.58971,19.58971 0 0 0 95.637893,44.341718 19.58971,19.58971 0 0 0 76.93838,29.8231 Z m -0.436873,4.051951 A 15.538296,15.538296 0 0 1 91.724302,45.390326 15.538296,15.538296 0 0 1 80.737159,64.420733 15.538296,15.538296 0 0 1 61.706755,53.433001 15.538296,15.538296 0 0 1 72.693895,34.402595 15.538296,15.538296 0 0 1 76.501507,33.875051 Z" />
  </g>
</svg>
