<?xml version="1.0" encoding="UTF-8" standalone="no"?>
<!-- Created with Inkscape (http://www.inkscape.org/) -->

<svg
   width="100mm"
   height="100mm"
   viewBox="0 0 100 100"
   version="1.1"
   id="svg5"
   inkscape:version="1.1.2 (b8e25be833, 2022-02-05)"
   sodipodi:docname="Triangle.svg"
   inkscape:export-filename="C:\repos\sql-grapher\assets\icons\Triangle.png"
   inkscape:export-xdpi="96"
   inkscape:export-ydpi="96"
   xmlns:inkscape="http://www.inkscape.org/namespaces/inkscape"
   xmlns:sodipodi="http://sodipodi.sourceforge.net/DTD/sodipodi-0.dtd"
   xmlns="http://www.w3.org/2000/svg"
   xmlns:svg="http://www.w3.org/2000/svg">
  <sodipodi:namedview
     id="namedview7"
     pagecolor="#505050"
     bordercolor="#eeeeee"
     borderopacity="1"
     inkscape:pageshadow="0"
     inkscape:pageopacity="0"
     inkscape:pagecheckerboard="0"
     inkscape:document-units="mm"
     showgrid="false"
     inkscape:zoom="1.466344"
     inkscape:cx="246.87249"
     inkscape:cy="218.22983"
     inkscape:window-width="1920"
     inkscape:window-height="1009"
     inkscape:window-x="-8"
     inkscape:window-y="-8"
     inkscape:window-maximized="1"
     inkscape:current-layer="layer1" />
  <defs
     id="defs2" />
  <g
     inkscape:label="Layer 1"
     inkscape:groupmode="layer"
     id="layer1">
    <path
       id="circle1539"
       style="fill:#ffffff;fill-opacity:1;stroke:none;stroke-width:0.309836;stroke-opacity:1"
       d="M 31.140283,64.141928 A 17.643459,17.643459 0 0 0 11.912837,60.317209 17.643459,17.643459 0 0 0 1.0207454,76.617343 17.643459,17.643459 0 0 0 11.912363,92.917948 17.643459,17.643459 0 0 0 31.140752,89.09323 l -2.447687,-2.447686 a 14.18199,14.18199 0 0 1 -20.0563984,0 14.18199,14.18199 0 0 1 -3.2e-6,-20.056401 14.18199,14.18199 0 0 1 20.0559296,4.74e-4 z" />
    <circle
       style="fill:#ffffff;fill-opacity:1;stroke:none;stroke-width:0.168854;stroke-opacity:1"
       id="circle1519"
       cx="67.374535"
       cy="40.978951"
       r="9.6153831"
       transform="rotate(45)" />
    <path
       style="fill:none;stroke:#ffffff;stroke-width:4.36779;stroke-linecap:butt;stroke-linejoin:miter;stroke-miterlimit:4;stroke-dasharray:none;stroke-opacity:1"
       d="m 63.995469,77.123411 -36.729716,6e-6"
       id="path2452" />
    <path
       id="circle1539-6"
       style="fill:#ffffff;fill-opacity:1;stroke:none;stroke-width:0.309836;stroke-opacity:1"
       d="M 54.556449,40.36271 A 17.643459,17.643459 0 0 0 67.482475,25.623613 17.643459,17.643459 0 0 0 58.812192,8.0407172 17.643459,17.643459 0 0 0 39.249644,9.3228326 17.643459,17.643459 0 0 0 32.947752,27.887464 L 36.291355,26.99155 A 14.18199,14.18199 0 0 1 46.319555,9.6221987 14.18199,14.18199 0 0 1 63.688909,19.650397 14.18199,14.18199 0 0 1 53.660532,37.019104 Z" />
    <circle
       style="fill:#ffffff;fill-opacity:1;stroke:none;stroke-width:0.168854;stroke-opacity:1"
       id="circle1519-1"
       cx="-42.251011"
       cy="-35.464367"
       r="9.6153831"
       transform="rotate(165)" />
    <path
       style="fill:none;stroke:#ffffff;stroke-width:4.36779;stroke-linecap:butt;stroke-linejoin:miter;stroke-miterlimit:4;stroke-dasharray:none;stroke-opacity:1"
       d="M 26.886565,62.32539 45.251414,30.516524"
       id="path2452-1" />
    <path
       id="circle1539-66"
       style="fill:#ffffff;fill-opacity:1;stroke:none;stroke-width:0.309836;stroke-opacity:1"
       d="m 63.746831,70.404119 a 17.643459,17.643459 0 0 0 6.30142,18.563816 17.643459,17.643459 0 0 0 19.562379,1.282762 17.643459,17.643459 0 0 0 8.670932,-17.582721 17.643459,17.643459 0 0 0 -12.926497,-14.739914 l -0.895922,3.343603 A 14.18199,14.18199 0 0 1 94.487348,78.641016 14.18199,14.18199 0 0 1 77.117991,88.669219 14.18199,14.18199 0 0 1 67.090437,71.300036 Z" />
    <circle
       style="fill:#ffffff;fill-opacity:1;stroke:none;stroke-width:0.168854;stroke-opacity:1"
       id="circle1519-5"
       cx="-51.506428"
       cy="97.439896"
       r="9.6153831"
       transform="rotate(-75)" />
    <path
       style="fill:none;stroke:#ffffff;stroke-width:4.36779;stroke-linecap:butt;stroke-linejoin:miter;stroke-miterlimit:4;stroke-dasharray:none;stroke-opacity:1"
       d="M 58.561534,35.459955 76.926396,67.268817"
       id="path2452-8" />
  </g>
</svg>
